<svg xmlns="http://www.w3.org/2000/svg" viewBox="0 0 800 500" width="800" height="500">
  <defs>
    <linearGradient id="bg" x1="0" y1="0" x2="1" y2="1">
      <stop offset="0%" stop-color="#0a0a0a"/>
      <stop offset="50%" stop-color="#0f1a12"/>
      <stop offset="100%" stop-color="#0a0a0a"/>
    </linearGradient>
    <radialGradient id="glow" cx="0.5" cy="0.5" r="0.5">
      <stop offset="0%" stop-color="#10b981" stop-opacity="0.15"/>
      <stop offset="100%" stop-color="#10b981" stop-opacity="0"/>
    </radialGradient>
    <linearGradient id="icon" x1="0" y1="0" x2="0" y2="1">
      <stop offset="0%" stop-color="#34d399"/>
      <stop offset="100%" stop-color="#059669"/>
    </linearGradient>
  </defs>

  <!-- Background -->
  <rect width="800" height="500" fill="url(#bg)"/>

  <!-- Subtle pattern dots -->
  <g fill="#10b981" fill-opacity="0.03">
    <circle cx="50" cy="50" r="2"/><circle cx="150" cy="50" r="2"/>
    <circle cx="250" cy="50" r="2"/><circle cx="350" cy="50" r="2"/>
    <circle cx="450" cy="50" r="2"/><circle cx="550" cy="50" r="2"/>
    <circle cx="650" cy="50" r="2"/><circle cx="750" cy="50" r="2"/>
    <circle cx="50" cy="100" r="2"/><circle cx="150" cy="100" r="2"/>
    <circle cx="250" cy="100" r="2"/><circle cx="350" cy="100" r="2"/>
    <circle cx="450" cy="100" r="2"/><circle cx="550" cy="100" r="2"/>
    <circle cx="650" cy="100" r="2"/><circle cx="750" cy="100" r="2"/>
    <circle cx="50" cy="150" r="2"/><circle cx="150" cy="150" r="2"/>
    <circle cx="250" cy="150" r="2"/><circle cx="350" cy="150" r="2"/>
    <circle cx="450" cy="150" r="2"/><circle cx="550" cy="150" r="2"/>
    <circle cx="650" cy="150" r="2"/><circle cx="750" cy="150" r="2"/>
    <circle cx="50" cy="200" r="2"/><circle cx="150" cy="200" r="2"/>
    <circle cx="250" cy="200" r="2"/><circle cx="350" cy="200" r="2"/>
    <circle cx="450" cy="200" r="2"/><circle cx="550" cy="200" r="2"/>
    <circle cx="650" cy="200" r="2"/><circle cx="750" cy="200" r="2"/>
    <circle cx="50" cy="250" r="2"/><circle cx="150" cy="250" r="2"/>
    <circle cx="250" cy="250" r="2"/><circle cx="350" cy="250" r="2"/>
    <circle cx="450" cy="250" r="2"/><circle cx="550" cy="250" r="2"/>
    <circle cx="650" cy="250" r="2"/><circle cx="750" cy="250" r="2"/>
    <circle cx="50" cy="300" r="2"/><circle cx="150" cy="300" r="2"/>
    <circle cx="250" cy="300" r="2"/><circle cx="350" cy="300" r="2"/>
    <circle cx="450" cy="300" r="2"/><circle cx="550" cy="300" r="2"/>
    <circle cx="650" cy="300" r="2"/><circle cx="750" cy="300" r="2"/>
    <circle cx="50" cy="350" r="2"/><circle cx="150" cy="350" r="2"/>
    <circle cx="250" cy="350" r="2"/><circle cx="350" cy="350" r="2"/>
    <circle cx="450" cy="350" r="2"/><circle cx="550" cy="350" r="2"/>
    <circle cx="650" cy="350" r="2"/><circle cx="750" cy="350" r="2"/>
    <circle cx="50" cy="400" r="2"/><circle cx="150" cy="400" r="2"/>
    <circle cx="250" cy="400" r="2"/><circle cx="350" cy="400" r="2"/>
    <circle cx="450" cy="400" r="2"/><circle cx="550" cy="400" r="2"/>
    <circle cx="650" cy="400" r="2"/><circle cx="750" cy="400" r="2"/>
    <circle cx="50" cy="450" r="2"/><circle cx="150" cy="450" r="2"/>
    <circle cx="250" cy="450" r="2"/><circle cx="350" cy="450" r="2"/>
    <circle cx="450" cy="450" r="2"/><circle cx="550" cy="450" r="2"/>
    <circle cx="650" cy="450" r="2"/><circle cx="750" cy="450" r="2"/>
  </g>

  <!-- Glow -->
  <rect width="800" height="500" fill="url(#glow)"/>

  <!-- Accent bar top -->
  <rect width="800" height="2" fill="#10b981" opacity="0.3"/>

  <!-- Bottom accent bar -->
  <rect y="498" width="800" height="2" fill="#10b981" opacity="0.3"/>

  <!-- Title text -->
  <text x="400" y="390" text-anchor="middle" font-family="system-ui, -apple-system, sans-serif" font-size="20" font-weight="600" fill="#6ee7b7" opacity="0.8">Anime Tracker</text>
  <text x="400" y="415" text-anchor="middle" font-family="system-ui, -apple-system, sans-serif" font-size="13" fill="#6ee7b7" opacity="0.4">Streaming availability · TMDB API</text>

  <!-- TV / Monitor with play button -->
  <g transform="translate(400, 185)">
    <!-- TV body -->
    <rect x="-85" y="-60" width="170" height="120" rx="10" fill="none" stroke="#10b981" stroke-width="1.5" stroke-opacity="0.3"/>
    <!-- TV screen area -->
    <rect x="-70" y="-48" width="140" height="85" rx="4" fill="#10b981" fill-opacity="0.04" stroke="#34d399" stroke-width="0.5" stroke-opacity="0.15"/>
    <!-- TV stand -->
    <rect x="-25" y="60" width="50" height="8" rx="2" fill="#10b981" fill-opacity="0.2"/>
    <rect x="-40" y="68" width="80" height="4" rx="2" fill="#10b981" fill-opacity="0.1"/>
    <!-- Screen glow lines -->
    <line x1="-60" y1="-30" x2="60" y2="-30" stroke="#34d399" stroke-width="0.5" stroke-opacity="0.06"/>
    <line x1="-60" y1="-15" x2="60" y2="-15" stroke="#34d399" stroke-width="0.5" stroke-opacity="0.06"/>
    <line x1="-60" y1="0" x2="60" y2="0" stroke="#34d399" stroke-width="0.5" stroke-opacity="0.06"/>
    <line x1="-60" y1="15" x2="60" y2="15" stroke="#34d399" stroke-width="0.5" stroke-opacity="0.06"/>
    <line x1="-60" y1="30" x2="60" y2="30" stroke="#34d399" stroke-width="0.5" stroke-opacity="0.06"/>

    <!-- Play button -->
    <polygon points="-25,-25 25,0 -25,25" fill="url(#icon)" fill-opacity="0.3" stroke="#34d399" stroke-width="1.5" stroke-opacity="0.5"/>
    <!-- Play button pulse ring -->
    <circle cx="0" cy="0" r="45" fill="none" stroke="#10b981" stroke-width="0.5" stroke-opacity="0.15"/>
    <circle cx="0" cy="0" r="55" fill="none" stroke="#10b981" stroke-width="0.5" stroke-opacity="0.08"/>
    <circle cx="0" cy="0" r="65" fill="none" stroke="#10b981" stroke-width="0.5" stroke-opacity="0.04"/>

    <!-- Signal bars top-right -->
    <g fill="#10b981" fill-opacity="0.25">
      <rect x="55" y="-55" width="3" height="8" rx="1"/>
      <rect x="62" y="-55" width="3" height="14" rx="1"/>
      <rect x="69" y="-55" width="3" height="20" rx="1"/>
    </g>
  </g>
</svg>
