<svg xmlns="http://www.w3.org/2000/svg" viewBox="0 0 800 500" width="800" height="500">
  <defs>
    <linearGradient id="bg" x1="0" y1="0" x2="1" y2="1">
      <stop offset="0%" stop-color="#0a0a0a"/>
      <stop offset="50%" stop-color="#0f1a12"/>
      <stop offset="100%" stop-color="#0a0a0a"/>
    </linearGradient>
    <radialGradient id="glow" cx="0.5" cy="0.5" r="0.5">
      <stop offset="0%" stop-color="#10b981" stop-opacity="0.15"/>
      <stop offset="100%" stop-color="#10b981" stop-opacity="0"/>
    </radialGradient>
    <linearGradient id="icon" x1="0" y1="0" x2="0" y2="1">
      <stop offset="0%" stop-color="#34d399"/>
      <stop offset="100%" stop-color="#059669"/>
    </linearGradient>
  </defs>

  <!-- Background -->
  <rect width="800" height="500" fill="url(#bg)"/>

  <!-- Subtle pattern dots -->
  <g fill="#10b981" fill-opacity="0.03">
    <circle cx="50" cy="50" r="2"/><circle cx="150" cy="50" r="2"/>
    <circle cx="250" cy="50" r="2"/><circle cx="350" cy="50" r="2"/>
    <circle cx="450" cy="50" r="2"/><circle cx="550" cy="50" r="2"/>
    <circle cx="650" cy="50" r="2"/><circle cx="750" cy="50" r="2"/>
    <circle cx="50" cy="100" r="2"/><circle cx="150" cy="100" r="2"/>
    <circle cx="250" cy="100" r="2"/><circle cx="350" cy="100" r="2"/>
    <circle cx="450" cy="100" r="2"/><circle cx="550" cy="100" r="2"/>
    <circle cx="650" cy="100" r="2"/><circle cx="750" cy="100" r="2"/>
    <circle cx="50" cy="150" r="2"/><circle cx="150" cy="150" r="2"/>
    <circle cx="250" cy="150" r="2"/><circle cx="350" cy="150" r="2"/>
    <circle cx="450" cy="150" r="2"/><circle cx="550" cy="150" r="2"/>
    <circle cx="650" cy="150" r="2"/><circle cx="750" cy="150" r="2"/>
    <circle cx="50" cy="200" r="2"/><circle cx="150" cy="200" r="2"/>
    <circle cx="250" cy="200" r="2"/><circle cx="350" cy="200" r="2"/>
    <circle cx="450" cy="200" r="2"/><circle cx="550" cy="200" r="2"/>
    <circle cx="650" cy="200" r="2"/><circle cx="750" cy="200" r="2"/>
    <circle cx="50" cy="250" r="2"/><circle cx="150" cy="250" r="2"/>
    <circle cx="250" cy="250" r="2"/><circle cx="350" cy="250" r="2"/>
    <circle cx="450" cy="250" r="2"/><circle cx="550" cy="250" r="2"/>
    <circle cx="650" cy="250" r="2"/><circle cx="750" cy="250" r="2"/>
    <circle cx="50" cy="300" r="2"/><circle cx="150" cy="300" r="2"/>
    <circle cx="250" cy="300" r="2"/><circle cx="350" cy="300" r="2"/>
    <circle cx="450" cy="300" r="2"/><circle cx="550" cy="300" r="2"/>
    <circle cx="650" cy="300" r="2"/><circle cx="750" cy="300" r="2"/>
    <circle cx="50" cy="350" r="2"/><circle cx="150" cy="350" r="2"/>
    <circle cx="250" cy="350" r="2"/><circle cx="350" cy="350" r="2"/>
    <circle cx="450" cy="350" r="2"/><circle cx="550" cy="350" r="2"/>
    <circle cx="650" cy="350" r="2"/><circle cx="750" cy="350" r="2"/>
    <circle cx="50" cy="400" r="2"/><circle cx="150" cy="400" r="2"/>
    <circle cx="250" cy="400" r="2"/><circle cx="350" cy="400" r="2"/>
    <circle cx="450" cy="400" r="2"/><circle cx="550" cy="400" r="2"/>
    <circle cx="650" cy="400" r="2"/><circle cx="750" cy="400" r="2"/>
    <circle cx="50" cy="450" r="2"/><circle cx="150" cy="450" r="2"/>
    <circle cx="250" cy="450" r="2"/><circle cx="350" cy="450" r="2"/>
    <circle cx="450" cy="450" r="2"/><circle cx="550" cy="450" r="2"/>
    <circle cx="650" cy="450" r="2"/><circle cx="750" cy="450" r="2"/>
  </g>

  <!-- Glow -->
  <rect width="800" height="500" fill="url(#glow)"/>

  <!-- Accent bar top -->
  <rect width="800" height="2" fill="#10b981" opacity="0.3"/>

  <!-- Bottom accent bar -->
  <rect y="498" width="800" height="2" fill="#10b981" opacity="0.3"/>

  <!-- Title text -->
  <text x="400" y="390" text-anchor="middle" font-family="system-ui, -apple-system, sans-serif" font-size="20" font-weight="600" fill="#6ee7b7" opacity="0.8">Pokédex App</text>
  <text x="400" y="415" text-anchor="middle" font-family="system-ui, -apple-system, sans-serif" font-size="13" fill="#6ee7b7" opacity="0.4">Next.js · TypeScript · API Integration</text>

  <!-- Pokéball Icon -->
  <g transform="translate(400, 185)">
    <!-- Outer Pokéball circle -->
    <circle cx="0" cy="0" r="65" fill="none" stroke="#10b981" stroke-width="1.5" stroke-opacity="0.25"/>
    <circle cx="0" cy="0" r="55" fill="#10b981" fill-opacity="0.03" stroke="#34d399" stroke-width="0.8" stroke-opacity="0.12"/>

    <!-- Top half fill -->
    <path d="M-55,0 A55,55 0 0,1 55,0" fill="#10b981" fill-opacity="0.06" stroke="none"/>
    
    <!-- Dividing line -->
    <line x1="-55" y1="0" x2="55" y2="0" stroke="#34d399" stroke-width="1.5" stroke-opacity="0.4"/>

    <!-- Center button ring -->
    <circle cx="0" cy="0" r="18" fill="none" stroke="#34d399" stroke-width="1.5" stroke-opacity="0.3"/>
    <circle cx="0" cy="0" r="12" fill="none" stroke="#34d399" stroke-width="1" stroke-opacity="0.2"/>
    <circle cx="0" cy="0" r="5" fill="#34d399" fill-opacity="0.15" stroke="#34d399" stroke-width="1" stroke-opacity="0.4"/>

    <!-- Outer decorative rings -->
    <circle cx="0" cy="0" r="72" fill="none" stroke="#10b981" stroke-width="0.5" stroke-opacity="0.1"/>
    <circle cx="0" cy="0" r="78" fill="none" stroke="#10b981" stroke-width="0.5" stroke-opacity="0.05"/>

    <!-- Data/stat dots around ball -->
    <g fill="#10b981" fill-opacity="0.2">
      <circle cx="0" cy="-82" r="2"/>
      <circle cx="82" cy="0" r="2"/>
      <circle cx="0" cy="82" r="2"/>
      <circle cx="-82" cy="0" r="2"/>
      <circle cx="58" cy="-58" r="1.5"/>
      <circle cx="-58" cy="-58" r="1.5"/>
      <circle cx="58" cy="58" r="1.5"/>
      <circle cx="-58" cy="58" r="1.5"/>
    </g>

    <!-- Small data cards beside ball -->
    <g fill="#10b981" fill-opacity="0.06" stroke="#34d399" stroke-width="0.5" stroke-opacity="0.1">
      <rect x="-100" y="-30" width="28" height="18" rx="2"/>
      <rect x="-100" y="12" width="28" height="18" rx="2"/>
      <rect x="72" y="-30" width="28" height="18" rx="2"/>
      <rect x="72" y="12" width="28" height="18" rx="2"/>
    </g>
  </g>
</svg>
